/* XPM */
static char * bullet_xpm[] = {
"5 7 2 1",
" 	c None",
".	c #70788D",
"     ",
" .   ",
"  .  ",
"   . ",
"  .  ",
" .   ",
"     "};
