/* XPM */
static char * task_focus_xpm[] = {
"4 24 3 1",
" 	c None",
".	c #141C21",
"+	c #819400",
"....",
"....",
"....",
"....",
"....",
"....",
"....",
"....",
"....",
"....",
"....",
"....",
"....",
"....",
"....",
"....",
"....",
"....",
"....",
"....",
"....",
"....",
"++++",
"++++"};
